<svg width="110" height="94" viewBox="0 0 110 94" fill="none" xmlns="http://www.w3.org/2000/svg">
<path d="M87.4137 14.5863C83.1647 10.2952 78.1096 6.88599 72.5391 4.55445C66.9685 2.2229 60.9921 1.015 54.9533 1.00014C48.9144 0.985276 42.9322 2.16374 37.3502 4.46784C31.7682 6.77194 26.6965 10.1563 22.4264 14.4264C18.1562 18.6965 14.7719 23.7682 12.4678 29.3502C10.1637 34.9322 8.98528 40.9144 9.00014 46.9533C9.015 52.9921 10.2229 58.9685 12.5544 64.5391C14.886 70.1096 18.2952 75.1647 22.5863 79.4137C26.8353 83.7048 31.8904 87.114 37.4609 89.4455C43.0315 91.7771 49.0079 92.985 55.0467 92.9999C61.0856 93.0147 67.0678 91.8363 72.6498 89.5322C78.2318 87.2281 83.3035 83.8438 87.5736 79.5736C91.8438 75.3035 95.2281 70.2318 97.5322 64.6498C99.8363 59.0678 101.015 53.0856 101 47.0467C100.985 41.0079 99.7771 35.0315 97.4456 29.4609C95.114 23.8904 91.7048 18.8353 87.4137 14.5863ZM15.7082 47C15.7067 43.5225 16.1678 40.0602 17.0793 36.7043C18.5814 39.9377 20.7629 42.7311 22.2466 46.0484C24.1641 50.3132 29.313 49.1303 31.5866 52.8672C33.6044 56.1845 31.4495 60.3797 32.9598 63.8505C34.0566 66.3696 36.6434 66.9201 38.4279 68.7619C40.2512 70.6201 40.2124 73.1659 40.4907 75.5889C40.8047 78.4357 41.3141 81.2576 42.0153 84.0346C42.0153 84.055 42.0153 84.0776 42.0317 84.098C26.7181 78.72 15.7082 64.1226 15.7082 47ZM55 86.2918C52.8057 86.2911 50.6152 86.1077 48.4514 85.7434C48.4739 85.1888 48.4841 84.671 48.5394 84.3108C49.0366 81.057 50.6656 77.8748 52.8635 75.4395C55.0348 73.037 58.0103 71.4121 59.8439 68.6862C61.6407 66.0258 62.1789 62.4445 61.4381 59.336C60.3474 54.7438 54.1077 53.211 50.7434 50.7204C48.8095 49.2879 47.0884 47.0737 44.5488 46.8936C43.3782 46.8117 42.398 47.0634 41.2376 46.7647C40.1735 46.4884 39.3385 45.9154 38.2048 46.0648C36.0867 46.3431 34.7504 48.6065 32.4747 48.2995C30.3157 48.0109 28.0913 45.4836 27.6001 43.4269C26.9698 40.7829 29.0613 39.9254 31.3021 39.6901C32.2374 39.5919 33.2872 39.4854 34.1856 39.8292C35.3684 40.2672 35.9271 41.4255 36.9892 42.0108C38.9804 43.1036 39.3836 41.3579 39.0786 39.5898C38.6223 36.9417 38.0902 35.8632 40.4518 34.0398C42.089 32.7833 43.4887 31.8747 43.2268 29.6175C43.0713 28.2914 42.3448 27.6918 43.0221 26.3718C43.5358 25.367 44.9458 24.4604 45.8647 23.8608C48.2365 22.3137 56.0253 22.4283 52.843 18.098C51.9078 16.8272 50.1827 14.5556 48.5455 14.2445C46.4991 13.8578 45.5904 16.1416 44.1641 17.1485C42.6906 18.1901 39.8215 19.3729 38.346 17.7624C36.3609 15.5952 39.6619 14.8851 40.3924 13.3707C40.7301 12.6647 40.3925 11.6844 39.8235 10.7615C40.5616 10.4504 41.312 10.1619 42.0746 9.89584C42.5526 10.2489 43.1196 10.4615 43.7118 10.5098C45.0809 10.5998 46.3722 9.85901 47.5673 10.7922C48.8934 11.8154 49.8491 13.1088 51.609 13.428C53.3117 13.737 55.1146 12.7445 55.5362 11.0009C55.792 9.94087 55.5362 8.82146 55.2906 7.72661C62.9444 7.77065 70.4164 10.0628 76.7783 14.3182C76.369 14.1627 75.8799 14.1811 75.2762 14.4615C74.034 15.0386 72.2741 16.5079 72.1288 17.965C71.963 19.6185 74.4024 19.8518 75.5607 19.8518C77.3001 19.8518 79.0621 19.0742 78.5014 17.0646C78.2579 16.1928 77.9264 15.2862 77.3922 14.7377C78.6762 15.6287 79.9062 16.5949 81.0758 17.6314C81.0574 17.6498 81.039 17.6662 81.0206 17.6867C79.8418 18.9145 78.4728 19.8866 77.6665 21.3805C77.0976 22.4324 76.457 22.9317 75.3049 23.2039C74.6705 23.3533 73.946 23.4085 73.4139 23.8342C71.9323 25.0007 72.7755 27.8043 74.1793 28.6454C75.9536 29.7075 78.5853 29.2082 79.9237 27.6918C80.9694 26.5048 81.5854 24.444 83.4661 24.4461C84.2941 24.4444 85.0895 24.7686 85.6804 25.3486C86.458 26.1549 86.3045 26.908 86.4703 27.9148C86.7629 29.7034 88.3407 28.7334 89.3005 27.8309C90.0001 29.076 90.6314 30.3583 91.1914 31.6721C90.1355 33.1926 89.2964 34.8502 86.7568 33.078C85.2363 32.0159 84.301 30.4749 82.3917 29.9961C80.7239 29.5868 79.0151 30.0124 77.3677 30.2969C75.4952 30.6223 73.2748 30.7655 71.8545 32.1837C70.4814 33.5507 69.7549 35.3803 68.2937 36.7534C65.4676 39.4138 64.2745 42.3177 66.104 46.0791C67.864 49.6952 71.5455 51.6577 75.5177 51.3999C79.4203 51.14 83.4743 48.8766 83.3617 54.5473C83.3208 56.5549 83.7403 57.9444 84.3563 59.8087C84.9273 61.5277 84.8884 63.1935 85.0194 64.9678C85.1439 67.0455 85.4687 69.1063 85.9894 71.1215C82.3213 75.8442 77.6224 79.6662 72.2515 82.2954C66.8806 84.9246 60.9799 86.2915 55 86.2918Z" fill="#679E84" fill-opacity="0.2"/>
<path d="M55.7233 45.082C51.4629 45.082 47.2982 43.8186 43.7558 41.4517C40.2134 39.0847 37.4524 35.7205 35.822 31.7844C34.1916 27.8483 33.7651 23.5171 34.5962 19.3386C35.4274 15.16 37.479 11.3218 40.4915 8.30922C43.5041 5.29666 47.3423 3.24508 51.5209 2.41391C55.6994 1.58275 60.0306 2.00933 63.9667 3.63972C67.9028 5.27011 71.267 8.03107 73.634 11.5735C76.001 15.1159 77.2643 19.2806 77.2643 23.541C77.258 29.2521 74.9865 34.7275 70.9481 38.7658C66.9098 42.8042 61.4344 45.0757 55.7233 45.082ZM55.7233 4.16668C51.8914 4.16668 48.1456 5.30296 44.9595 7.43184C41.7734 9.56072 39.2902 12.5866 37.8238 16.1268C36.3574 19.667 35.9737 23.5625 36.7213 27.3208C37.4688 31.079 39.314 34.5312 42.0236 37.2407C44.7331 39.9503 48.1853 41.7955 51.9436 42.5431C55.7018 43.2906 59.5974 42.907 63.1376 41.4406C66.6778 39.9742 69.7036 37.4909 71.8325 34.3048C73.9614 31.1187 75.0977 27.3729 75.0977 23.541C75.0919 18.4044 73.0489 13.4798 69.4167 9.84762C65.7846 6.21547 60.86 4.17241 55.7233 4.16668Z" fill="#679E84" fill-opacity="0.8"/>
<path d="M65.198 27.488C64.4584 29.3753 63.1671 30.9959 61.4925 32.1382C59.818 33.2805 57.838 33.8915 55.811 33.8915C53.7839 33.8915 51.8039 33.2805 50.1294 32.1382C48.4549 30.9959 47.1635 29.3753 46.424 27.488C45.926 26.308 44.202 27.326 44.698 28.498C45.6164 30.6877 47.1612 32.5574 49.1385 33.8722C51.1158 35.187 53.4374 35.8885 55.812 35.8885C58.1865 35.8885 60.5081 35.187 62.4854 33.8722C64.4627 32.5574 66.0075 30.6877 66.926 28.498C67.42 27.326 65.698 26.298 65.198 27.488Z" fill="#679E84" fill-opacity="0.8"/>
<path d="M49.812 20.522C51.1927 20.522 52.3119 19.4027 52.3119 18.022C52.3119 16.6413 51.1927 15.522 49.812 15.522C48.4312 15.522 47.312 16.6413 47.312 18.022C47.312 19.4027 48.4312 20.522 49.812 20.522Z" fill="#679E84" fill-opacity="0.8"/>
<path d="M61.812 20.522C63.1927 20.522 64.3119 19.4027 64.3119 18.022C64.3119 16.6413 63.1927 15.522 61.812 15.522C60.4312 15.522 59.312 16.6413 59.312 18.022C59.312 19.4027 60.4312 20.522 61.812 20.522Z" fill="#679E84" fill-opacity="0.8"/>
<g clip-path="url(#clip0_10_229)">
<path d="M50.0187 45.9941C52.7572 49.2577 54.4665 53.2602 54.9303 57.4953C55.3941 61.7304 54.5917 66.0079 52.6244 69.7869C50.6572 73.5659 47.6135 76.6767 43.8783 78.7259C40.1431 80.7751 35.8841 81.6707 31.6399 81.2994C27.3957 80.9281 23.357 79.3066 20.0343 76.6399C16.7117 73.9732 14.2545 70.3811 12.9733 66.3179C11.6922 62.2547 11.6447 57.9028 12.8369 53.8126C14.0291 49.7224 16.4074 46.0775 19.6711 43.339C24.0501 39.6728 29.7045 37.8934 35.3939 38.3912C41.0833 38.8889 46.3429 41.6232 50.0187 45.9941ZM18.6758 72.294C21.1388 75.2293 24.4171 77.3684 28.0958 78.4407C31.7746 79.513 35.6888 79.4703 39.3433 78.318C42.9979 77.1657 46.2286 74.9556 48.6271 71.9672C51.0256 68.9788 52.484 65.3463 52.818 61.529C53.1519 57.7117 52.3464 53.881 50.5033 50.5215C48.6603 47.162 45.8623 44.4245 42.4634 42.6551C39.0645 40.8858 35.2172 40.164 31.4081 40.5812C27.599 40.9984 23.9992 42.5357 21.0638 44.9988C17.1326 48.3049 14.6734 53.0355 14.2257 58.1526C13.778 63.2697 15.3784 68.3554 18.6758 72.294Z" fill="#679E84" fill-opacity="0.8"/>
<path d="M30.4507 50.7559C32.3719 50.1093 34.4434 50.0568 36.3948 50.6053C38.3462 51.1538 40.087 52.2778 41.39 53.8306C42.693 55.3834 43.4976 57.293 43.6989 59.31C43.9002 61.327 43.4888 63.3579 42.5184 65.1376C41.9346 66.2776 43.8226 66.9439 44.4016 65.8106C45.4887 63.6995 45.9279 61.3143 45.6641 58.9545C45.4004 56.5946 44.4454 54.3653 42.9191 52.5463C41.3928 50.7272 39.3631 49.3997 37.0849 48.7301C34.8067 48.0606 32.3815 48.079 30.1137 48.783C28.8984 49.1579 29.2177 51.1378 30.4507 50.7559Z" fill="#679E84" fill-opacity="0.8"/>
<path d="M35.0044 67.0199C34.1169 65.9622 32.54 65.8243 31.4823 66.7118C30.4246 67.5993 30.2867 69.1762 31.1742 70.2339C32.0617 71.2915 33.6386 71.4295 34.6963 70.542C35.754 69.6545 35.8919 68.0776 35.0044 67.0199Z" fill="#679E84" fill-opacity="0.8"/>
<path d="M27.291 57.8274C26.4035 56.7697 24.8266 56.6317 23.7689 57.5192C22.7112 58.4067 22.5732 59.9836 23.4607 61.0413C24.3483 62.099 25.9251 62.237 26.9828 61.3495C28.0405 60.462 28.1785 58.8851 27.291 57.8274Z" fill="#679E84" fill-opacity="0.8"/>
</g>
<g clip-path="url(#clip1_10_229)">
<path d="M59.7192 46.339C62.4577 43.0754 66.1025 40.6971 70.1927 39.5049C74.2829 38.3127 78.6348 38.3602 82.698 39.6413C86.7612 40.9224 90.3533 43.3797 93.02 46.7023C95.6867 50.0249 97.3082 54.0637 97.6795 58.3079C98.0509 62.5521 97.1553 66.8111 95.1061 70.5463C93.0569 74.2815 89.9461 77.3252 86.167 79.2924C82.388 81.2596 78.1105 82.0621 73.8754 81.5983C69.6403 81.1345 65.6379 79.4252 62.3742 76.6867C58.0033 73.0108 55.2691 67.7512 54.7713 62.0619C54.2735 56.3725 56.053 50.718 59.7192 46.339ZM91.0621 72.6389C93.5252 69.7035 95.0625 66.1036 95.4797 62.2945C95.8969 58.4854 95.1751 54.6382 93.4058 51.2392C91.6364 47.8403 88.8989 45.0424 85.5394 43.1993C82.1798 41.3562 78.3492 40.5507 74.5319 40.8847C70.7146 41.2187 67.0821 42.6771 64.0937 45.0756C61.1052 47.474 58.8952 50.7048 57.7429 54.3593C56.5906 58.0139 56.5479 61.928 57.6202 65.6068C58.6925 69.2856 60.8315 72.5638 63.7669 75.0269C67.7055 78.3243 72.7912 79.9247 77.9083 79.477C83.0254 79.0293 87.756 76.5701 91.0621 72.6389Z" fill="#679E84" fill-opacity="0.8"/>
<path d="M67.1068 64.9062C66.1364 63.1265 65.725 61.0956 65.9263 59.0786C66.1276 57.0616 66.9322 55.152 68.2352 53.5992C69.5382 52.0464 71.279 50.9224 73.2304 50.3739C75.1818 49.8254 77.2533 49.8779 79.1745 50.5245C80.3985 50.9015 80.7268 48.9265 79.5102 48.5531C77.2424 47.8491 74.8172 47.8307 72.539 48.5003C70.2608 49.1698 68.2311 50.4974 66.7048 52.3164C65.1785 54.1354 64.2235 56.3647 63.9598 58.7246C63.696 61.0844 64.1352 63.4696 65.2223 65.5807C65.8026 66.7125 67.697 66.0542 67.1068 64.9062Z" fill="#679E84" fill-opacity="0.8"/>
<path d="M82.333 57.5975C81.4454 58.6552 81.5834 60.2321 82.6411 61.1196C83.6988 62.0071 85.2757 61.8691 86.1632 60.8115C87.0507 59.7538 86.9127 58.1769 85.855 57.2894C84.7973 56.4019 83.2205 56.5398 82.333 57.5975Z" fill="#679E84" fill-opacity="0.8"/>
<path d="M74.6195 66.79C73.732 67.8477 73.87 69.4246 74.9277 70.3121C75.9853 71.1996 77.5622 71.0617 78.4497 70.004C79.3372 68.9463 79.1993 67.3694 78.1416 66.4819C77.0839 65.5944 75.507 65.7324 74.6195 66.79Z" fill="#679E84" fill-opacity="0.8"/>
</g>
<defs>
<clipPath id="clip0_10_229">
<rect width="48" height="48" fill="white" transform="translate(30.8538 94) rotate(-130)"/>
</clipPath>
<clipPath id="clip1_10_229">
<rect width="48" height="48" fill="white" transform="translate(109.624 57) rotate(130)"/>
</clipPath>
</defs>
</svg>
