<svg width="283" height="77" viewBox="0 0 283 77" fill="none" xmlns="http://www.w3.org/2000/svg">
<path d="M70.3979 12.4648C67.1251 9.15963 63.2315 6.53367 58.9408 4.7378C54.6501 2.94194 50.0468 2.01156 45.3954 2.00011C40.744 1.98866 36.1362 2.89637 31.8367 4.67109C27.5371 6.44582 23.6306 9.05258 20.3416 12.3416C17.0526 15.6306 14.4458 19.5371 12.6711 23.8367C10.8964 28.1362 9.98866 32.744 10.0001 37.3954C10.0116 42.0468 10.9419 46.65 12.7378 50.9408C14.5337 55.2315 17.1596 59.1251 20.4648 62.3979C23.7376 65.7031 27.6312 68.3291 31.922 70.1249C36.2127 71.9208 40.816 72.8512 45.4674 72.8626C50.1188 72.8741 54.7266 71.9664 59.0261 70.1917C63.3256 68.4169 67.2321 65.8102 70.5211 62.5211C73.8102 59.2321 76.4169 55.3256 78.1917 51.0261C79.9664 46.7266 80.8741 42.1188 80.8626 37.4674C80.8512 32.816 79.9208 28.2127 78.1249 23.922C76.3291 19.6312 73.7031 15.7376 70.3979 12.4648ZM15.167 37.4314C15.1658 34.7528 15.521 32.086 16.2231 29.5012C17.3801 31.9917 19.0604 34.1433 20.2032 36.6984C21.6801 39.9834 25.646 39.0723 27.3973 41.9505C28.9515 44.5057 27.2916 47.737 28.4549 50.4104C29.2998 52.3508 31.2922 52.7748 32.6667 54.1934C34.0712 55.6247 34.0412 57.5856 34.2556 59.4519C34.4975 61.6447 34.8899 63.8182 35.4299 65.9572C35.4299 65.9729 35.4299 65.9903 35.4425 66.006C23.6473 61.8636 15.167 50.62 15.167 37.4314ZM45.4314 67.6958C43.7412 67.6952 42.054 67.5539 40.3873 67.2733C40.4046 66.8462 40.4125 66.4474 40.4551 66.17C40.8381 63.6637 42.0928 61.2126 43.7857 59.3368C45.4582 57.4863 47.7501 56.2347 49.1624 54.1351C50.5464 52.086 50.9609 49.3275 50.3903 46.9331C49.5502 43.396 44.7441 42.2154 42.1527 40.297C40.6632 39.1936 39.3375 37.4881 37.3814 37.3494C36.4797 37.2864 35.7247 37.4802 34.8309 37.2501C34.0113 37.0373 33.3682 36.5959 32.4949 36.711C30.8635 36.9254 29.8342 38.6687 28.0814 38.4323C26.4184 38.2101 24.705 36.2634 24.3267 34.6792C23.8412 32.6427 25.4521 31.9822 27.1782 31.8009C27.8985 31.7253 28.7071 31.6433 29.3991 31.9081C30.3102 32.2454 30.7405 33.1376 31.5586 33.5884C33.0923 34.4302 33.4028 33.0856 33.168 31.7237C32.8165 29.684 32.4066 28.8533 34.2257 27.4488C35.4867 26.481 36.5648 25.7812 36.3631 24.0425C36.2433 23.0211 35.6837 22.5593 36.2055 21.5426C36.6011 20.7686 37.6872 20.0703 38.3949 19.6085C40.2218 18.4168 46.2211 18.5051 43.77 15.1697C43.0496 14.1908 41.7208 12.4412 40.4598 12.2016C38.8835 11.9037 38.1837 13.6628 37.085 14.4383C35.9501 15.2406 33.7402 16.1517 32.6037 14.9112C31.0747 13.2419 33.6172 12.6949 34.1799 11.5285C34.44 10.9847 34.1799 10.2297 33.7417 9.51876C34.3103 9.27917 34.8882 9.05692 35.4756 8.852C35.8438 9.12391 36.2805 9.28768 36.7367 9.32488C37.7912 9.39424 38.7858 8.82363 39.7064 9.54241C40.7278 10.3305 41.4639 11.3267 42.8195 11.5726C44.1309 11.8107 45.5196 11.0462 45.8444 9.70319C46.0414 8.88668 45.8444 8.02446 45.6552 7.18115C51.5505 7.21507 57.3058 8.9806 62.2061 12.2583C61.8908 12.1385 61.5141 12.1527 61.0491 12.3687C60.0923 12.8132 58.7367 13.9449 58.6248 15.0672C58.4971 16.3409 60.376 16.5206 61.2682 16.5206C62.608 16.5206 63.9652 15.9216 63.5333 14.3737C63.3457 13.7022 63.0903 13.0039 62.6789 12.5815C63.6679 13.2677 64.6153 14.012 65.5162 14.8103C65.502 14.8245 65.4878 14.8371 65.4737 14.8529C64.5657 15.7986 63.5112 16.5474 62.8902 17.698C62.452 18.5082 61.9586 18.8928 61.0711 19.1025C60.5825 19.2176 60.0245 19.2601 59.6147 19.588C58.4734 20.4865 59.1229 22.6459 60.2042 23.2938C61.5708 24.1119 63.5979 23.7273 64.6288 22.5593C65.4343 21.645 65.9087 20.0577 67.3573 20.0593C67.9951 20.058 68.6077 20.3077 69.0628 20.7544C69.6618 21.3755 69.5436 21.9555 69.6713 22.7311C69.8967 24.1087 71.112 23.3616 71.8513 22.6664C72.3901 23.6255 72.8763 24.6132 73.3077 25.6251C72.4944 26.7963 71.8481 28.0731 69.892 26.708C68.7208 25.8899 68.0004 24.703 66.5298 24.3341C65.2451 24.0189 63.9289 24.3467 62.66 24.5658C61.2177 24.8165 59.5075 24.9268 58.4135 26.0192C57.3559 27.0721 56.7963 28.4813 55.6708 29.539C53.494 31.5881 52.575 33.8249 53.9842 36.7221C55.3398 39.5073 58.1755 41.019 61.2351 40.8204C64.241 40.6202 67.3636 38.8768 67.2769 43.2447C67.2454 44.791 67.5685 45.8613 68.043 47.2973C68.4828 48.6213 68.4528 49.9044 68.5537 51.271C68.6496 52.8713 68.8998 54.4587 69.3008 56.0109C66.4755 59.6486 62.8562 62.5924 58.7193 64.6175C54.5824 66.6427 50.0374 67.6956 45.4314 67.6958Z" fill="#DBFFEE" fill-opacity="0.1"/>
<path d="M44.8769 37.0207C41.5592 37.0207 38.3161 36.0369 35.5576 34.1938C32.7991 32.3506 30.6491 29.7308 29.3795 26.6657C28.1099 23.6006 27.7777 20.2279 28.425 16.974C29.0722 13.7201 30.6698 10.7312 33.0157 8.38533C35.3616 6.03941 38.3505 4.44182 41.6044 3.79459C44.8583 3.14735 48.231 3.47954 51.2961 4.74914C54.3612 6.01874 56.9809 8.16873 58.8241 10.9272C60.6673 13.6857 61.6511 16.9289 61.6511 20.2465C61.6462 24.6938 59.8773 28.9575 56.7326 32.1022C53.5879 35.247 49.3242 37.0158 44.8769 37.0207ZM44.8769 5.15948C41.8929 5.15948 38.976 6.04432 36.495 7.7021C34.0139 9.35989 32.0802 11.7162 30.9383 14.4729C29.7964 17.2297 29.4976 20.2632 30.0797 23.1898C30.6619 26.1164 32.0988 28.8047 34.2087 30.9146C36.3187 33.0246 39.0069 34.4615 41.9335 35.0436C44.8601 35.6258 47.8936 35.327 50.6504 34.1851C53.4072 33.0432 55.7635 31.1094 57.4213 28.6284C59.079 26.1473 59.9639 23.2304 59.9639 20.2465C59.9594 16.2465 58.3685 12.4117 55.5401 9.5833C52.7117 6.7549 48.8768 5.16395 44.8769 5.15948Z" fill="#DBFFEE" fill-opacity="0.5"/>
<path d="M52.7949 23.189C52.171 24.7811 51.0817 26.1483 49.669 27.1119C48.2564 28.0756 46.5861 28.5911 44.876 28.5911C43.166 28.5911 41.4957 28.0756 40.083 27.1119C38.6704 26.1483 37.581 24.7811 36.9571 23.189C36.537 22.1935 35.0826 23.0523 35.501 24.041C36.2758 25.8883 37.5791 27.4655 39.2471 28.5747C40.9152 29.6839 42.8737 30.2757 44.8769 30.2757C46.88 30.2757 48.8386 29.6839 50.5066 28.5747C52.1747 27.4655 53.4779 25.8883 54.2527 24.041C54.6694 23.0523 53.2167 22.1851 52.7949 23.189Z" fill="#DBFFEE" fill-opacity="0.5"/>
<path d="M39.8152 17.3124C40.98 17.3124 41.9243 16.3682 41.9243 15.2034C41.9243 14.0387 40.98 13.0944 39.8152 13.0944C38.6505 13.0944 37.7062 14.0387 37.7062 15.2034C37.7062 16.3682 38.6505 17.3124 39.8152 17.3124Z" fill="#DBFFEE" fill-opacity="0.5"/>
<path d="M49.9385 17.3124C51.1033 17.3124 52.0475 16.3682 52.0475 15.2034C52.0475 14.0387 51.1033 13.0944 49.9385 13.0944C48.7737 13.0944 47.8295 14.0387 47.8295 15.2034C47.8295 16.3682 48.7737 17.3124 49.9385 17.3124Z" fill="#DBFFEE" fill-opacity="0.5"/>
<g clip-path="url(#clip0_4_79)">
<path d="M48.4666 37.6468C50.5991 35.1053 53.4374 33.2533 56.6225 32.3249C59.8075 31.3966 63.1964 31.4335 66.3605 32.4312C69.5246 33.4288 72.3217 35.3423 74.3983 37.9297C76.4749 40.517 77.7376 43.6621 78.0268 46.9671C78.3159 50.2721 77.6185 53.5886 76.0228 56.4972C74.427 59.4059 72.0046 61.776 69.0618 63.308C66.1191 64.8399 62.7881 65.4647 59.4902 65.1036C56.1923 64.7424 53.0756 63.4114 50.5341 61.2788C47.1304 58.4164 45.0012 54.3207 44.6136 49.8903C44.226 45.46 45.6117 41.0568 48.4666 37.6468ZM72.8737 58.1268C74.7917 55.841 75.9889 53.0377 76.3137 50.0715C76.6386 47.1053 76.0765 44.1094 74.6987 41.4626C73.3209 38.8158 71.1891 36.6371 68.5731 35.2018C65.957 33.7666 62.974 33.1394 60.0014 33.3994C57.0289 33.6595 54.2002 34.7952 51.873 36.6629C49.5459 38.5306 47.8249 41.0465 46.9276 43.8923C46.0303 46.7381 45.9971 49.7861 46.8321 52.6508C47.6671 55.5155 49.3328 58.0683 51.6186 59.9864C54.6856 62.5541 58.6459 63.8003 62.6307 63.4517C66.6154 63.1031 70.2991 61.1881 72.8737 58.1268Z" fill="#DBFFEE" fill-opacity="0.5"/>
<path d="M53.9726 52.6032C53.154 51.1019 52.807 49.3886 52.9768 47.687C53.1466 45.9854 53.8254 44.3746 54.9246 43.0646C56.0238 41.7546 57.4923 40.8064 59.1386 40.3437C60.7848 39.881 62.5323 39.9253 64.153 40.4708C65.1856 40.7888 65.4626 39.1227 64.4362 38.8077C62.5231 38.2138 60.4772 38.1983 58.5553 38.7631C56.6334 39.3279 54.9212 40.4479 53.6336 41.9824C52.346 43.5169 51.5403 45.3976 51.3178 47.3884C51.0953 49.3792 51.4659 51.3913 52.3829 53.1722C52.8724 54.127 54.4705 53.5716 53.9726 52.6032Z" fill="#DBFFEE" fill-opacity="0.5"/>
<path d="M66.8175 46.4376C66.0688 47.3298 66.1852 48.6601 67.0775 49.4088C67.9697 50.1575 69.3 50.0411 70.0487 49.1489C70.7974 48.2566 70.681 46.9263 69.7888 46.1776C68.8965 45.4289 67.5662 45.5453 66.8175 46.4376Z" fill="#DBFFEE" fill-opacity="0.5"/>
<path d="M60.3104 54.1924C59.5617 55.0847 59.6781 56.415 60.5704 57.1637C61.4626 57.9124 62.7929 57.796 63.5416 56.9037C64.2903 56.0115 64.1739 54.6812 63.2817 53.9325C62.3894 53.1838 61.0591 53.3002 60.3104 54.1924Z" fill="#DBFFEE" fill-opacity="0.5"/>
</g>
<g clip-path="url(#clip1_4_79)">
<path d="M41.3737 37.2959C43.5062 39.8374 44.8373 42.9541 45.1984 46.252C45.5596 49.55 44.9347 52.8809 43.4028 55.8237C41.8709 58.7664 39.5008 61.1889 36.5921 62.7846C33.6835 64.3804 30.3669 65.0777 27.0619 64.7886C23.7569 64.4994 20.6119 63.2367 18.0245 61.1602C15.4372 59.0836 13.5237 56.2864 12.5261 53.1223C11.5284 49.9582 11.4915 46.5694 12.4198 43.3843C13.3482 40.1992 15.2002 37.3609 17.7416 35.2284C21.1516 32.3735 25.5548 30.9878 29.9852 31.3755C34.4156 31.7631 38.5113 33.8923 41.3737 37.2959ZM16.9666 57.7759C18.8846 60.0618 21.4374 61.7275 24.3021 62.5625C27.1668 63.3975 30.2148 63.3642 33.0607 62.4669C35.9065 61.5697 38.4223 59.8486 40.29 57.5215C42.1578 55.1944 43.2935 52.3657 43.5535 49.3931C43.8136 46.4205 43.1863 43.4376 41.7511 40.8215C40.3159 38.2054 38.1371 36.0737 35.4903 34.6959C32.8435 33.318 29.8476 32.756 26.8814 33.0809C23.9152 33.4057 21.112 34.6028 18.8262 36.5209C15.7649 39.0954 13.8499 42.7792 13.5013 46.7639C13.1526 50.7486 14.3989 54.7089 16.9666 57.7759Z" fill="#DBFFEE" fill-opacity="0.5"/>
<path d="M25.6884 40.1212C27.3091 39.5757 29.0565 39.5315 30.7028 39.9942C32.349 40.4569 33.8176 41.4051 34.9168 42.7151C36.0159 44.025 36.6947 45.6359 36.8646 47.3375C37.0344 49.0391 36.6873 50.7523 35.8687 52.2537C35.3762 53.2154 36.9689 53.7775 37.4573 52.8214C38.3744 51.0405 38.7449 49.0283 38.5224 47.0376C38.2999 45.0468 37.4943 43.1661 36.2067 41.6316C34.9191 40.0971 33.2069 38.9771 31.285 38.4123C29.3631 37.8475 27.3171 37.863 25.404 38.4568C24.3788 38.7731 24.6482 40.4434 25.6884 40.1212Z" fill="#DBFFEE" fill-opacity="0.5"/>
<path d="M29.5298 53.8416C28.7811 52.9493 27.4509 52.833 26.5586 53.5817C25.6663 54.3304 25.5499 55.6606 26.2987 56.5529C27.0474 57.4452 28.3776 57.5616 29.2699 56.8129C30.1622 56.0641 30.2785 54.7339 29.5298 53.8416Z" fill="#DBFFEE" fill-opacity="0.5"/>
<path d="M23.0227 46.0867C22.274 45.1945 20.9438 45.0781 20.0515 45.8268C19.1592 46.5755 19.0429 47.9058 19.7916 48.798C20.5403 49.6903 21.8705 49.8067 22.7628 49.058C23.6551 48.3093 23.7714 46.979 23.0227 46.0867Z" fill="#DBFFEE" fill-opacity="0.5"/>
</g>
<path fill-rule="evenodd" clip-rule="evenodd" d="M77.4464 53C79.723 48.3165 81 43.0574 81 37.5C81 32.3348 79.8969 27.4272 77.9134 23L53 23C49.6863 23 47 25.6863 47 29V47C47 50.3137 49.6863 53 53 53H77.4464Z" fill="#679E84"/>
<path d="M69.1918 27.76V30.736H63.2718V50H59.6238V30.736H53.6718V27.76H69.1918ZM85.0143 34.928C85.5476 34.032 86.2516 33.3387 87.1263 32.848C88.0223 32.336 89.0783 32.08 90.2943 32.08V35.856H89.3663C87.9369 35.856 86.8489 36.2187 86.1023 36.944C85.3769 37.6693 85.0143 38.928 85.0143 40.72V50H81.3663V32.368H85.0143V34.928ZM100.912 41.104C100.912 39.3333 101.274 37.7653 102 36.4C102.746 35.0347 103.749 33.9787 105.008 33.232C106.288 32.464 107.696 32.08 109.232 32.08C110.618 32.08 111.824 32.3573 112.848 32.912C113.893 33.4453 114.725 34.1173 115.344 34.928V32.368H119.024V50H115.344V47.376C114.725 48.208 113.882 48.9013 112.816 49.456C111.749 50.0107 110.533 50.288 109.168 50.288C107.653 50.288 106.266 49.904 105.008 49.136C103.749 48.3467 102.746 47.2587 102 45.872C101.274 44.464 100.912 42.8747 100.912 41.104ZM115.344 41.168C115.344 39.952 115.088 38.896 114.576 38C114.085 37.104 113.434 36.4213 112.624 35.952C111.813 35.4827 110.938 35.248 110 35.248C109.061 35.248 108.186 35.4827 107.376 35.952C106.565 36.4 105.904 37.072 105.392 37.968C104.901 38.8427 104.656 39.888 104.656 41.104C104.656 42.32 104.901 43.3867 105.392 44.304C105.904 45.2213 106.565 45.9253 107.376 46.416C108.208 46.8853 109.082 47.12 110 47.12C110.938 47.12 111.813 46.8853 112.624 46.416C113.434 45.9467 114.085 45.264 114.576 44.368C115.088 43.4507 115.344 42.384 115.344 41.168ZM139.111 46.736L144.103 32.368H147.975L141.255 50H136.903L130.215 32.368H134.119L139.111 46.736ZM175.373 40.752C175.373 41.4133 175.33 42.0107 175.245 42.544H161.773C161.879 43.952 162.402 45.0827 163.341 45.936C164.279 46.7893 165.431 47.216 166.797 47.216C168.759 47.216 170.146 46.3947 170.957 44.752H174.892C174.359 46.3733 173.389 47.7067 171.981 48.752C170.594 49.776 168.866 50.288 166.797 50.288C165.111 50.288 163.597 49.9147 162.253 49.168C160.93 48.4 159.885 47.3333 159.117 45.968C158.37 44.5813 157.997 42.9813 157.997 41.168C157.997 39.3547 158.359 37.7653 159.085 36.4C159.831 35.0133 160.866 33.9467 162.189 33.2C163.533 32.4533 165.069 32.08 166.797 32.08C168.461 32.08 169.943 32.4427 171.245 33.168C172.546 33.8933 173.559 34.9173 174.285 36.24C175.01 37.5413 175.373 39.0453 175.373 40.752ZM171.565 39.6C171.543 38.256 171.063 37.1787 170.125 36.368C169.186 35.5573 168.023 35.152 166.637 35.152C165.378 35.152 164.301 35.5573 163.405 36.368C162.509 37.1573 161.975 38.2347 161.805 39.6H171.565ZM198.994 50L193.874 41.104H191.09V50H187.442V27.76H195.122C196.829 27.76 198.269 28.0587 199.442 28.656C200.637 29.2533 201.522 30.0533 202.098 31.056C202.696 32.0587 202.994 33.1787 202.994 34.416C202.994 35.8667 202.568 37.1893 201.714 38.384C200.882 39.5573 199.592 40.3573 197.842 40.784L203.346 50H198.994ZM191.09 38.192H195.122C196.488 38.192 197.512 37.8507 198.194 37.168C198.898 36.4853 199.25 35.568 199.25 34.416C199.25 33.264 198.909 32.368 198.226 31.728C197.544 31.0667 196.509 30.736 195.122 30.736H191.09V38.192ZM232.301 40.752C232.301 41.4133 232.259 42.0107 232.173 42.544H218.701C218.808 43.952 219.331 45.0827 220.269 45.936C221.208 46.7893 222.36 47.216 223.725 47.216C225.688 47.216 227.075 46.3947 227.885 44.752H231.821C231.288 46.3733 230.317 47.7067 228.909 48.752C227.523 49.776 225.795 50.288 223.725 50.288C222.04 50.288 220.525 49.9147 219.181 49.168C217.859 48.4 216.813 47.3333 216.045 45.968C215.299 44.5813 214.925 42.9813 214.925 41.168C214.925 39.3547 215.288 37.7653 216.013 36.4C216.76 35.0133 217.795 33.9467 219.117 33.2C220.461 32.4533 221.997 32.08 223.725 32.08C225.389 32.08 226.872 32.4427 228.173 33.168C229.475 33.8933 230.488 34.9173 231.213 36.24C231.939 37.5413 232.301 39.0453 232.301 40.752ZM228.493 39.6C228.472 38.256 227.992 37.1787 227.053 36.368C226.115 35.5573 224.952 35.152 223.565 35.152C222.307 35.152 221.229 35.5573 220.333 36.368C219.437 37.1573 218.904 38.2347 218.733 39.6H228.493ZM243.155 41.104C243.155 39.3333 243.518 37.7653 244.243 36.4C244.99 35.0347 245.993 33.9787 247.251 33.232C248.531 32.464 249.939 32.08 251.475 32.08C252.862 32.08 254.067 32.3573 255.091 32.912C256.137 33.4453 256.969 34.1173 257.587 34.928V32.368H261.267V50H257.587V47.376C256.969 48.208 256.126 48.9013 255.059 49.456C253.993 50.0107 252.777 50.288 251.411 50.288C249.897 50.288 248.51 49.904 247.251 49.136C245.993 48.3467 244.99 47.2587 244.243 45.872C243.518 44.464 243.155 42.8747 243.155 41.104ZM257.587 41.168C257.587 39.952 257.331 38.896 256.819 38C256.329 37.104 255.678 36.4213 254.867 35.952C254.057 35.4827 253.182 35.248 252.243 35.248C251.305 35.248 250.43 35.4827 249.619 35.952C248.809 36.4 248.147 37.072 247.635 37.968C247.145 38.8427 246.899 39.888 246.899 41.104C246.899 42.32 247.145 43.3867 247.635 44.304C248.147 45.2213 248.809 45.9253 249.619 46.416C250.451 46.8853 251.326 47.12 252.243 47.12C253.182 47.12 254.057 46.8853 254.867 46.416C255.678 45.9467 256.329 45.264 256.819 44.368C257.331 43.4507 257.587 42.384 257.587 41.168ZM278.187 26.32V50H274.539V26.32H278.187Z" fill="#DBFFEE"/>
<defs>
<clipPath id="clip0_4_79">
<rect width="40.493" height="40.493" fill="white" transform="translate(89.8403 45.9335) rotate(130)"/>
</clipPath>
<clipPath id="clip1_4_79">
<rect width="40.493" height="40.493" fill="white" transform="translate(26.0284 76.6021) rotate(-130)"/>
</clipPath>
</defs>
</svg>
